# xmcd
#
# Track frame offsets:
#	150
#	17808
#	31217
#	49558
#	72587
#	91046
#	111721
#	142120
#	165476
#	184116
#	213338
#	228495
#	252221
#	266779
#	296266
#	309724
#	319114
#	328991
#
# Disc length: 4623 seconds
#
# Revision: 0
# Processed by: cddbd v1.5.1PL0 Copyright (c) Steve Scherf et al.
# Submitted via: audiograbber 1.83.01
#
DISCID=0e120d12
DTITLE=The Mavericks - Live at the Royal Albert Hall - CD 1
DYEAR=1998
DGENRE=Country
TTITLE0=Tell Me Why
TTITLE1=I Should Know
TTITLE2=Someone Should Tell Her
TTITLE3=I Should Have Been True
TTITLE4=Blue Moon
TTITLE5=I've Got This Feeling
TTITLE6=(Tonight) The Bottle Let Me Down
TTITLE7=I Hope You Want Me Too
TTITLE8=Dolores
TTITLE9=Save A Prayer
TTITLE10=Dream River
TTITLE11=Fool #1
TTITLE12=Moon River
TTITLE13=From Hell To Paradise - Guantanamera
TTITLE14=I Don't Care (If You Love Me Anymore)
TTITLE15=Swinging Safari
TTITLE16=The Lion Sleeps Tonight
TTITLE17=What A Crying Shame
EXTD=
EXTT0=
EXTT1=
EXTT2=
EXTT3=
EXTT4=
EXTT5=
EXTT6=
EXTT7=
EXTT8=
EXTT9=
EXTT10=
EXTT11=
EXTT12=
EXTT13=
EXTT14=
EXTT15=
EXTT16=
EXTT17=
PLAYORDER=
